<?xml version="1.0" standalone="no"?>
<!DOCTYPE svg PUBLIC "-//W3C//DTD SVG 20010904//EN"
 "http://www.w3.org/TR/2001/REC-SVG-20010904/DTD/svg10.dtd">
<svg version="1.0" xmlns="http://www.w3.org/2000/svg"
 width="80.000000pt" height="80.000000pt" viewBox="0 0 80.000000 80.000000"
 preserveAspectRatio="xMidYMid meet">
<metadata>
Created by potrace 1.16, written by Peter Selinger 2001-2019
</metadata>
<g transform="translate(0.000000,80.000000) scale(0.100000,-0.100000)"
fill="#000000" stroke="none">
<path d="M367 702 c-21 -23 -21 -41 -2 -69 12 -18 13 -31 6 -65 -6 -24 -13
-64 -16 -90 -7 -56 -20 -62 -31 -16 -3 18 -16 52 -27 75 -19 38 -19 46 -7 83
13 38 12 42 -8 62 -18 18 -26 20 -49 12 -37 -12 -45 -66 -14 -86 19 -12 21
-23 21 -113 l0 -100 -27 45 c-14 25 -33 53 -42 63 -9 12 -15 34 -13 61 1 32
-4 48 -17 61 -26 22 -63 16 -78 -14 -14 -30 -2 -57 33 -73 19 -9 24 -19 24
-47 0 -59 30 -185 48 -203 14 -13 26 -15 67 -8 65 11 265 11 330 0 41 -7 53
-5 67 8 18 18 48 144 48 203 0 28 5 38 24 47 35 16 47 43 33 73 -15 30 -52 36
-78 14 -13 -13 -18 -29 -17 -61 2 -27 -4 -49 -13 -61 -9 -10 -28 -38 -42 -63
l-27 -45 0 97 c0 87 2 98 20 108 42 23 17 90 -34 90 -38 0 -59 -55 -32 -82 12
-12 12 -20 -1 -54 -8 -21 -22 -58 -30 -81 -9 -24 -19 -43 -24 -43 -4 0 -11 21
-14 48 -3 26 -10 66 -16 90 -7 34 -6 47 6 65 20 28 19 50 -3 70 -24 22 -45 21
-65 -1z"/>
<path d="M233 263 c-25 -3 -33 -9 -33 -24 0 -11 -7 -30 -15 -42 l-14 -22 174
3 c169 4 265 -2 265 -16 0 -4 -101 -6 -225 -5 -211 2 -225 1 -225 -16 0 -32
26 -42 134 -53 114 -11 310 2 329 21 8 8 7 23 -2 54 -7 23 -15 54 -18 68 -4
23 -11 27 -50 33 -48 6 -265 6 -320 -1z"/>
</g>
</svg>
