<?xml version="1.0" standalone="no"?>
<!DOCTYPE svg PUBLIC "-//W3C//DTD SVG 20010904//EN"
 "http://www.w3.org/TR/2001/REC-SVG-20010904/DTD/svg10.dtd">
<svg version="1.0" xmlns="http://www.w3.org/2000/svg"
 width="225.000000pt" height="225.000000pt" viewBox="0 0 225.000000 225.000000"
 preserveAspectRatio="xMidYMid meet">
<metadata>
Created by potrace 1.16, written by Peter Selinger 2001-2019
</metadata>
<g transform="translate(0.000000,225.000000) scale(0.100000,-0.100000)"
fill="#000000" stroke="none">
<path d="M1315 2100 c-163 -36 -282 -129 -354 -280 l-36 -75 -3 -167 c-4 -160
-3 -167 18 -188 17 -17 29 -21 54 -16 49 10 56 28 56 147 0 177 29 267 112
345 96 90 155 107 356 102 143 -3 149 -4 214 -36 82 -40 148 -111 179 -190 22
-56 23 -67 25 -542 3 -530 -2 -613 -41 -690 -75 -149 -207 -205 -453 -195
-157 7 -247 48 -317 143 -51 69 -67 130 -74 270 -5 107 -9 126 -25 138 -28 20
-63 17 -86 -6 -18 -18 -20 -33 -20 -148 0 -132 12 -198 50 -273 47 -92 162
-192 265 -231 56 -21 75 -23 281 -23 l220 0 75 37 c95 47 177 130 222 225 l32
68 3 589 c3 566 2 593 -17 655 -46 150 -153 262 -306 321 -52 20 -81 24 -225
26 -91 2 -183 -1 -205 -6z"/>
<path d="M598 1602 c-26 -11 -408 -434 -415 -460 -3 -13 -1 -33 5 -45 6 -12
99 -118 207 -234 179 -194 199 -213 229 -213 41 0 66 26 66 67 0 26 -23 56
-140 181 -77 83 -140 153 -140 156 0 3 279 6 619 6 666 0 639 -2 656 50 6 20
-9 59 -29 72 -6 4 -289 8 -628 8 -340 0 -618 3 -618 6 0 3 63 74 140 157 118
128 140 157 140 184 0 22 -8 38 -26 52 -28 22 -38 24 -66 13z"/>
</g>
</svg>
