<?xml version="1.0" standalone="no"?>
<!DOCTYPE svg PUBLIC "-//W3C//DTD SVG 20010904//EN"
 "http://www.w3.org/TR/2001/REC-SVG-20010904/DTD/svg10.dtd">
<svg version="1.0" xmlns="http://www.w3.org/2000/svg"
 width="80.000000pt" height="80.000000pt" viewBox="0 0 80.000000 80.000000"
 preserveAspectRatio="xMidYMid meet">
<metadata>
Created by potrace 1.16, written by Peter Selinger 2001-2019
</metadata>
<g transform="translate(0.000000,80.000000) scale(0.100000,-0.100000)"
fill="#000000" stroke="none">
<path d="M338 663 l-27 -27 -24 22 c-41 39 -70 24 -60 -29 3 -18 -5 -40 -26
-72 -47 -69 -111 -201 -111 -229 0 -44 34 -75 90 -83 46 -6 51 -5 74 22 33 39
146 127 146 113 0 -28 -32 -82 -79 -134 -54 -60 -71 -91 -71 -132 l0 -24 195
0 195 0 0 96 c0 188 -32 298 -104 362 -20 17 -51 34 -71 38 -39 7 -48 24 -12
24 39 0 101 -44 134 -94 49 -73 73 -161 80 -303 3 -71 10 -123 16 -123 7 0 8
47 3 135 -5 108 -12 149 -32 203 -41 113 -118 184 -222 207 -21 4 -32 13 -34
28 -4 31 -29 32 -60 0z"/>
</g>
</svg>
