<?xml version="1.0" standalone="no"?>
<!DOCTYPE svg PUBLIC "-//W3C//DTD SVG 20010904//EN"
 "http://www.w3.org/TR/2001/REC-SVG-20010904/DTD/svg10.dtd">
<svg version="1.0" xmlns="http://www.w3.org/2000/svg"
 width="80.000000pt" height="80.000000pt" viewBox="0 0 80.000000 80.000000"
 preserveAspectRatio="xMidYMid meet">
<metadata>
Created by potrace 1.16, written by Peter Selinger 2001-2019
</metadata>
<g transform="translate(0.000000,80.000000) scale(0.100000,-0.100000)"
fill="#000000" stroke="none">
<path d="M330 630 c-14 -14 -20 -33 -20 -65 0 -25 -4 -45 -8 -45 -13 0 -42
-68 -42 -98 1 -15 7 -38 15 -52 13 -24 11 -27 -25 -65 -42 -43 -80 -134 -80
-192 l0 -33 221 0 222 0 -7 62 c-9 74 -44 148 -86 178 -28 20 -29 23 -15 43
24 34 19 109 -8 139 -18 19 -22 34 -19 61 3 28 -1 41 -22 61 -32 33 -96 36
-126 6z"/>
</g>
</svg>
