<?xml version="1.0" standalone="no"?>
<!DOCTYPE svg PUBLIC "-//W3C//DTD SVG 20010904//EN"
 "http://www.w3.org/TR/2001/REC-SVG-20010904/DTD/svg10.dtd">
<svg version="1.0" xmlns="http://www.w3.org/2000/svg"
 width="80.000000pt" height="80.000000pt" viewBox="0 0 80.000000 80.000000"
 preserveAspectRatio="xMidYMid meet">
<metadata>
Created by potrace 1.16, written by Peter Selinger 2001-2019
</metadata>
<g transform="translate(0.000000,80.000000) scale(0.100000,-0.100000)"
fill="#000000" stroke="none">
<path d="M231 681 c-9 -6 -12 -20 -9 -42 4 -26 -1 -44 -24 -78 -17 -23 -50
-83 -75 -133 -34 -67 -43 -96 -38 -117 9 -40 43 -68 94 -76 41 -7 45 -5 81 31
51 52 120 107 126 101 10 -10 -29 -72 -77 -125 -47 -52 -76 -118 -65 -148 4
-11 46 -14 225 -14 212 0 220 1 226 20 4 12 1 80 -5 153 -19 206 -69 304 -184
358 -34 16 -69 29 -78 29 -10 0 -20 10 -24 25 -8 33 -37 33 -70 0 l-26 -26
-23 26 c-26 27 -33 29 -54 16z m81 -71 c13 0 29 9 36 20 15 25 32 26 32 2 0
-15 13 -22 54 -31 139 -31 201 -139 213 -373 l6 -108 -187 0 c-123 0 -186 4
-186 10 0 20 28 65 60 95 49 47 72 92 86 169 7 39 13 77 13 84 2 24 -19 11
-33 -22 -7 -18 -35 -51 -62 -72 -26 -21 -68 -57 -92 -79 -35 -31 -43 -35 -38
-19 5 15 2 24 -10 28 -11 4 -18 0 -21 -14 -10 -38 -63 -17 -63 25 0 26 47 125
100 209 33 52 41 72 36 94 l-6 27 19 -22 c11 -13 30 -23 43 -23z"/>
</g>
</svg>
