<?xml version="1.0" standalone="no"?>
<!DOCTYPE svg PUBLIC "-//W3C//DTD SVG 20010904//EN"
 "http://www.w3.org/TR/2001/REC-SVG-20010904/DTD/svg10.dtd">
<svg version="1.0" xmlns="http://www.w3.org/2000/svg"
 width="80.000000pt" height="80.000000pt" viewBox="0 0 80.000000 80.000000"
 preserveAspectRatio="xMidYMid meet">
<metadata>
Created by potrace 1.16, written by Peter Selinger 2001-2019
</metadata>
<g transform="translate(0.000000,80.000000) scale(0.100000,-0.100000)"
fill="#000000" stroke="none">
<path d="M328 630 c-23 -23 -29 -38 -27 -62 2 -18 -5 -44 -14 -58 -35 -54 -40
-87 -20 -126 l18 -37 -40 -41 c-41 -42 -69 -107 -81 -183 l-7 -43 232 0 231 0
-4 23 c-3 12 -8 44 -11 72 -7 49 -41 111 -84 149 -15 14 -18 23 -11 37 6 10
10 42 10 72 0 41 -5 58 -20 72 -14 13 -20 31 -20 61 0 35 -5 47 -31 68 -42 35
-82 34 -121 -4z m110 -28 c14 -19 15 -41 3 -61 -7 -10 -1 -23 20 -43 38 -38
40 -94 5 -135 l-25 -29 34 -18 c52 -28 105 -121 105 -182 l0 -24 -190 0 c-213
0 -200 -6 -174 79 16 54 71 125 105 136 19 6 18 8 -6 37 -38 45 -31 113 16
146 15 10 16 18 9 38 -24 62 57 108 98 56z"/>
</g>
</svg>
