<?xml version="1.0" standalone="no"?>
<!DOCTYPE svg PUBLIC "-//W3C//DTD SVG 20010904//EN"
 "http://www.w3.org/TR/2001/REC-SVG-20010904/DTD/svg10.dtd">
<svg version="1.0" xmlns="http://www.w3.org/2000/svg"
 width="80.000000pt" height="80.000000pt" viewBox="0 0 80.000000 80.000000"
 preserveAspectRatio="xMidYMid meet">
<metadata>
Created by potrace 1.16, written by Peter Selinger 2001-2019
</metadata>
<g transform="translate(0.000000,80.000000) scale(0.100000,-0.100000)"
fill="#000000" stroke="none">
<path d="M362 708 c-17 -17 -15 -64 3 -81 8 -8 12 -16 10 -19 -2 -2 -9 -35
-15 -73 -13 -80 -26 -101 -36 -59 -4 16 -16 47 -26 68 -19 37 -19 41 -4 73 12
25 13 39 6 53 -30 57 -100 40 -100 -25 0 -20 6 -37 15 -43 13 -7 15 -25 13
-92 l-3 -84 -36 60 c-29 46 -36 66 -32 92 6 40 -10 62 -47 62 -60 0 -81 -69
-30 -98 20 -11 31 -27 34 -47 24 -161 29 -181 57 -217 34 -44 35 -52 9 -85
-11 -14 -20 -38 -20 -54 0 -49 23 -54 241 -54 180 0 199 2 218 19 26 24 26 32
1 81 -25 50 -25 49 9 93 28 36 33 56 57 217 3 20 14 36 34 47 52 30 29 98 -32
98 -35 0 -51 -23 -45 -62 4 -26 -3 -46 -32 -92 l-36 -60 -3 79 c-2 63 0 82 13
91 20 15 20 80 -1 88 -33 13 -64 6 -80 -19 -15 -23 -15 -27 1 -51 18 -29 18
-32 -18 -118 l-25 -59 -10 39 c-24 101 -28 141 -15 153 16 15 17 63 1 79 -15
15 -61 15 -76 0z m254 -381 c4 -4 0 -15 -9 -24 -14 -14 -43 -16 -206 -16 -140
0 -194 3 -206 13 -22 18 -19 28 13 33 45 8 400 3 408 -6z m-68 -63 c12 -4 22
-14 22 -24 0 -15 -15 -17 -170 -17 -156 0 -170 1 -170 18 0 10 8 20 18 22 26
7 274 8 300 1z m42 -114 c31 -20 -9 -25 -195 -25 -186 0 -226 5 -195 25 19 13
371 13 390 0z"/>
</g>
</svg>
