<?xml version="1.0" standalone="no"?>
<!DOCTYPE svg PUBLIC "-//W3C//DTD SVG 20010904//EN"
 "http://www.w3.org/TR/2001/REC-SVG-20010904/DTD/svg10.dtd">
<svg version="1.0" xmlns="http://www.w3.org/2000/svg"
 width="80.000000pt" height="80.000000pt" viewBox="0 0 80.000000 80.000000"
 preserveAspectRatio="xMidYMid meet">
<metadata>
Created by potrace 1.16, written by Peter Selinger 2001-2019
</metadata>
<g transform="translate(0.000000,80.000000) scale(0.100000,-0.100000)"
fill="#000000" stroke="none">
<path d="M176 644 c-16 -41 -6 -94 24 -127 29 -34 30 -37 30 -140 0 -81 -3
-107 -15 -117 -8 -7 -15 -27 -15 -46 0 -28 -4 -33 -27 -36 -26 -3 -28 -6 -28
-48 l0 -45 255 0 255 0 0 45 c0 42 -2 45 -27 48 -24 3 -28 8 -28 36 0 19 -7
39 -15 46 -12 10 -15 36 -15 117 0 103 1 106 30 140 22 25 30 44 30 73 0 63
-6 70 -61 70 -41 0 -49 -3 -49 -19 0 -14 -6 -17 -26 -13 -14 2 -28 11 -31 18
-3 10 -23 14 -63 14 -40 0 -60 -4 -63 -14 -3 -7 -17 -16 -31 -18 -20 -4 -26
-1 -26 13 0 16 -8 19 -49 19 -35 0 -51 -4 -55 -16z m77 -34 c4 -17 14 -20 57
-20 43 0 53 3 57 20 4 14 14 20 33 20 19 0 29 -6 33 -20 4 -17 14 -20 57 -20
43 0 53 3 57 20 3 11 14 20 24 20 15 0 19 -7 19 -35 l0 -35 -190 0 -190 0 0
35 c0 28 4 35 19 35 10 0 21 -9 24 -20z m287 -215 l0 -105 -140 0 -140 0 0
105 0 105 140 0 140 0 0 -105z m30 -200 l0 -25 -170 0 -170 0 0 25 0 25 170 0
170 0 0 -25z"/>
</g>
</svg>
