<?xml version="1.0" standalone="no"?>
<!DOCTYPE svg PUBLIC "-//W3C//DTD SVG 20010904//EN"
 "http://www.w3.org/TR/2001/REC-SVG-20010904/DTD/svg10.dtd">
<svg version="1.0" xmlns="http://www.w3.org/2000/svg"
 width="80.000000pt" height="80.000000pt" viewBox="0 0 80.000000 80.000000"
 preserveAspectRatio="xMidYMid meet">
<metadata>
Created by potrace 1.16, written by Peter Selinger 2001-2019
</metadata>
<g transform="translate(0.000000,80.000000) scale(0.100000,-0.100000)"
fill="#000000" stroke="none">
<path d="M356 701 c-19 -20 -23 -46 -12 -73 6 -12 0 -21 -23 -32 -87 -46 -124
-182 -66 -246 14 -15 14 -20 -1 -48 -21 -44 -15 -84 16 -99 23 -12 22 -13 -25
-13 -67 0 -117 -15 -143 -43 -21 -23 -21 -24 -5 -40 16 -13 37 -14 161 -8 78
4 206 4 285 0 122 -6 144 -5 159 8 15 13 16 19 5 31 -22 27 -91 52 -147 52
-51 0 -53 1 -30 13 31 15 37 55 16 99 -15 28 -15 33 -1 48 58 64 21 200 -66
246 -23 11 -29 20 -23 32 18 44 -11 92 -56 92 -15 0 -35 -8 -44 -19z"/>
</g>
</svg>
