<?xml version="1.0" standalone="no"?>
<!DOCTYPE svg PUBLIC "-//W3C//DTD SVG 20010904//EN"
 "http://www.w3.org/TR/2001/REC-SVG-20010904/DTD/svg10.dtd">
<svg version="1.0" xmlns="http://www.w3.org/2000/svg"
 width="80.000000pt" height="80.000000pt" viewBox="0 0 80.000000 80.000000"
 preserveAspectRatio="xMidYMid meet">
<metadata>
Created by potrace 1.16, written by Peter Selinger 2001-2019
</metadata>
<g transform="translate(0.000000,80.000000) scale(0.100000,-0.100000)"
fill="#000000" stroke="none">
<path d="M176 644 c-3 -9 -6 -35 -6 -59 0 -37 5 -47 30 -65 l30 -21 0 -113 c0
-89 -3 -116 -15 -126 -8 -7 -15 -27 -15 -46 0 -28 -4 -33 -27 -36 -26 -3 -28
-6 -28 -48 l0 -45 255 0 255 0 0 45 c0 42 -2 45 -27 48 -24 3 -28 8 -28 36 0
19 -7 39 -15 46 -12 10 -15 37 -15 126 l0 113 30 21 c25 18 30 28 30 65 0 68
-6 75 -61 75 -41 0 -49 -3 -49 -19 0 -14 -6 -17 -26 -13 -14 2 -28 11 -31 18
-3 10 -23 14 -63 14 -40 0 -60 -4 -63 -14 -3 -7 -17 -16 -31 -18 -20 -4 -26
-1 -26 13 0 16 -8 19 -49 19 -35 0 -51 -4 -55 -16z"/>
</g>
</svg>
